<svg xmlns="http://www.w3.org/2000/svg" viewBox="0 -0.5 48 48" shape-rendering="crispEdges">
<metadata>Made with Pixels to Svg https://codepen.io/shshaw/pen/XbxvNj</metadata>
<path stroke="#000000" d="M15 6h8M31 6h8M15 7h8M31 7h8M15 8h8M31 8h8M15 9h8M31 9h8M11 10h4M19 10h4M27 10h4M35 10h4M11 11h4M19 11h4M27 11h4M35 11h4M11 12h4M19 12h4M27 12h4M35 12h4M11 13h4M19 13h4M27 13h4M35 13h4M7 14h4M19 14h8M35 14h4M7 15h4M19 15h8M35 15h4M7 16h4M19 16h8M35 16h4M7 17h4M19 17h8M35 17h4M7 18h4M35 18h4M7 19h4M35 19h4M7 20h4M35 20h4M7 21h4M35 21h4M7 22h4M35 22h8M7 23h4M35 23h8M7 24h4M35 24h8M7 25h4M35 25h8M7 26h4M39 26h4M7 27h4M39 27h4M7 28h4M39 28h4M7 29h4M39 29h4M7 30h4M39 30h4M7 31h4M39 31h4M7 32h4M39 32h4M7 33h4M39 33h4M7 34h8M31 34h8M7 35h8M31 35h8M7 36h8M31 36h8M7 37h8M31 37h8M11 38h20M11 39h20M11 40h20M11 41h20" />
<path stroke="#27170e" d="M15 10h4M31 10h4M15 11h4M31 11h4M15 12h4M31 12h4M15 13h4M31 13h4M19 22h4M31 22h4M19 23h4M31 23h4M19 24h4M31 24h4M19 25h4M31 25h4M35 26h4M35 27h4M35 28h4M35 29h4" />
<path stroke="#b75800" d="M11 14h4M27 14h4M11 15h4M27 15h4M11 16h4M27 16h4M11 17h4M27 17h4M11 18h24M11 19h24M11 20h24M11 21h24M11 22h8M23 22h8M11 23h8M23 23h8M11 24h8M23 24h8M11 25h8M23 25h8M11 26h24M11 27h24M11 28h24M11 29h24M11 30h16M11 31h16M11 32h16M11 33h16M15 34h8M15 35h8M15 36h8M15 37h8" />
<path stroke="#f4cca1" d="M15 14h4M31 14h4M15 15h4M31 15h4M15 16h4M31 16h4M15 17h4M31 17h4M27 30h12M27 31h12M27 32h12M27 33h12M23 34h8M23 35h8M23 36h8M23 37h8" />
</svg>